<?xml version="1.0" encoding="UTF-8"?>
<svg width="250px" height="80px" viewBox="0 0 250 80" version="1.1" xmlns="http://www.w3.org/2000/svg" xmlns:xlink="http://www.w3.org/1999/xlink">
    <!-- Generator: Sketch 58 (84663) - https://sketch.com -->
    <title>bradesco</title>
    <desc>Created with Sketch.</desc>
    <defs>
        <rect id="path-1" x="0" y="0" width="250" height="80" rx="4"></rect>
    </defs>
    <g id="Home" stroke="none" stroke-width="1" fill="none" fill-rule="evenodd">
        <g id="27.0.1_home" transform="translate(-109.000000, -511.000000)">
            <g id="Parceiros" transform="translate(0.000000, 479.000000)">
                <g transform="translate(109.000000, 32.000000)" id="bradesco">
                    <g>
                        <g id="Group-2">
                            <mask id="mask-2" fill="white">
                                <use xlink:href="#path-1"></use>
                            </mask>
                            <use id="Rectangle" fill="#B5121B" xlink:href="#path-1"></use>
                            <g id="logo-bradesco" mask="url(#mask-2)" fill="#FFFFFF" fill-rule="nonzero">
                                <g transform="translate(45.000000, 22.000000)" id="Shape">
                                    <path d="M51.4951581,19.4471196 C50.2608752,19.4471196 49.0481923,19.7230184 48.2891084,20.1043166 L48.2891084,12.4163513 C47.0825969,12.8658493 45.806657,13.4889465 44.7405452,14.3553926 C44.1882036,14.8064405 44.015404,15.2559385 44.015404,15.9146855 L44.015404,34.8927999 C45.15403,35.3779477 47.4636817,35.7933459 49.6699623,35.7933459 C55.2550922,35.7933459 58.4642276,32.3647613 58.4642276,27.4125337 C58.459599,22.4944059 56.18389,19.4471196 51.4951581,19.4471196 Z M49.9091046,32.3043116 C49.4616771,32.3043116 48.7720215,32.3043116 48.2891084,32.1307124 L48.2891084,23.4988013 C48.8753927,23.1888027 49.7023622,23.0136535 50.7715598,23.0136535 C52.9084119,23.0136535 54.0470379,24.5031968 54.0470379,27.3086841 C54.0470379,30.2521209 52.7016696,32.3043116 49.9091046,32.3043116 Z M69.3490594,19.5943689 C67.3155785,19.5943689 66.1430098,20.3910653 65.0398695,21.8108589 C64.9443813,21.1127487 64.7821461,20.4255084 64.5554134,19.7586682 C64.1403858,19.6191688 63.4167875,19.585069 62.7965604,19.585069 C62.2175664,19.5806026 61.6397779,19.6388047 61.073193,19.7586682 L61.073193,35.4476974 C61.5900489,35.5856468 62.452504,35.6212966 63.2100451,35.6212966 C63.9265393,35.6267516 64.6421145,35.5686597 65.3484402,35.4476974 L65.3484402,27.7938319 C65.3484402,24.7449957 66.9329508,23.117503 69.0713458,23.117503 C69.5434953,23.1059297 70.0158529,23.1292424 70.4845997,23.1872527 C70.7311267,22.0479558 70.7547074,20.8713611 70.5540281,19.7230184 C70.1588127,19.637918 69.7562824,19.5917165 69.3521452,19.585069 L69.3490594,19.5943689 Z M15.3646101,27.2745843 L15.3646101,35.2663482 C15.3642031,35.362399 15.4018961,35.4546572 15.4693571,35.5227213 C15.5368181,35.5907853 15.6284891,35.6290466 15.7240983,35.6290466 L17.9380932,35.6290466 L17.9380932,25.3680929 L15.7287269,26.6452871 C15.5010263,26.7663838 15.3611837,27.0065372 15.3676992,27.2652843 L15.3646101,27.2745843 Z M17.6063797,7.63152292 C15.3031793,7.64006338 13.0046608,7.84070165 10.7345099,8.23137021 C13.2155355,5.04590134 17.0208604,3.18876994 21.0469431,3.19854292 C24.1326502,3.19854292 27.2183573,4.36878764 29.3042954,6.10942979 C29.6792088,6.41942839 29.9677224,6.45197824 30.256236,6.16677953 C30.5447496,5.88158081 30.5169783,5.5963821 30.1991504,5.22438378 C27.485271,2.05774807 23.5000803,-0.0827922751 18.7943769,0.00245734023 C12.6445626,0.117156823 7.41891764,4.03243916 5.42555085,9.44811472 C3.70320399,9.97051892 2.03895287,10.6696329 0.459105243,11.5344053 C0.0548776108,11.7622543 -0.0901506236,12.047453 0.0548776108,12.3900014 C0.198362992,12.7 0.486876607,12.8177995 0.891104239,12.7 C2.16241557,12.3295517 3.46149827,12.0164531 4.81766654,11.7297044 C4.66731092,12.4625942 4.59029921,13.2087547 4.58778136,13.9570444 C4.47206735,18.9511218 7.12886117,23.6879005 11.2220517,26.2856888 C11.6262793,26.5429876 11.9734213,26.5429876 12.2033065,26.228339 C12.4331917,25.9136904 12.4054203,25.6284917 12.0598211,25.3153931 C9.4601129,22.9749037 8.01754482,19.4936194 8.01754482,16.040235 C8.00929833,14.3414914 8.35346878,12.6596576 9.0281139,11.1019573 C10.3842822,10.9888078 11.8577073,10.9020082 13.4746179,10.9020082 C23.9845363,10.9020082 32.84823,14.3848424 32.84823,18.9511218 C32.84823,21.2621614 29.9322368,23.574751 26.4669877,25.115444 C25.6292182,25.4858924 25.5412755,25.7431912 25.6585324,26.1136395 C25.7742464,26.456188 26.1491598,26.5786374 26.5842445,26.4236381 C32.6522876,24.4318971 37.2469055,21.1443619 37.2469055,17.1825798 C37.2469055,11.7886042 28.580697,7.62222296 17.6094654,7.62222296 L17.6063797,7.63152292 Z M21.8476841,23.1082031 L18.9162624,24.7976955 L18.9162624,35.6243966 L22.0575122,35.6243966 C22.3659704,35.6243966 22.6160252,35.3731847 22.6160252,35.0632991 L22.6160252,23.5019013 C22.6268252,23.0586033 22.2025404,22.897404 21.8507698,23.0989031 L21.8476841,23.1082031 Z M152.226524,19.3882199 C147.434421,19.3882199 144.745227,22.678855 144.745227,27.6310827 C144.745227,32.65306 147.571735,35.8041958 152.226524,35.8041958 C157.05257,35.8041958 159.74178,32.5833103 159.74178,27.6310827 C159.749478,22.6323552 157.055656,19.3773699 152.22961,19.3773699 L152.226524,19.3882199 Z M152.226524,32.3415114 C149.847444,32.3415114 149.123846,30.4024702 149.123846,27.6310827 C149.123846,24.9294449 149.847444,22.8509042 152.226524,22.8509042 C154.67349,22.8509042 155.363154,24.8658952 155.363154,27.6310827 C155.366231,30.5295696 154.573204,32.3306615 152.22961,32.3306615 L152.226524,32.3415114 Z M110.515478,19.3773699 C105.896175,19.3773699 103.068124,22.4944059 103.068124,27.6899824 C103.068124,32.885559 106.067431,35.7933459 111.205134,35.7933459 C112.962444,35.7933459 114.858611,35.4833473 116.065122,34.8927999 C116.30736,33.7979146 116.30736,32.6629502 116.065122,31.5680649 C114.479069,32.0191129 113.133701,32.2965616 111.652561,32.2965616 C109.273481,32.2965616 107.619542,31.3960157 107.273943,28.8664271 L116.99392,28.8664271 C117.131234,28.4866788 117.165178,27.2048346 117.165178,26.6855869 C117.16672,22.009258 114.543869,19.3773699 110.515478,19.3773699 Z M107.275486,25.7152913 C107.584056,23.8103499 108.724225,22.6680051 110.447593,22.6680051 C112.377702,22.6680051 113.136786,23.9839491 113.206215,25.7152913 L107.275486,25.7152913 Z M140.267866,32.2609118 C138.131014,32.2609118 136.719303,30.5559195 136.719303,27.5861329 C136.719303,24.7449957 137.856386,22.909804 140.303352,22.909804 C141.239354,22.9047283 142.166177,23.095279 143.024945,23.4693515 C143.339937,22.3790899 143.854244,21.3572811 144.54157,20.4561651 C143.196202,19.7633182 141.886319,19.3820199 139.749467,19.3820199 C135.026793,19.3820199 132.303656,22.7408547 132.303656,27.5969828 C132.303656,32.6189602 135.094678,35.8041958 139.922267,35.8041958 C141.679577,35.8041958 143.299573,35.4941972 144.610999,34.7657005 C143.90029,33.8636081 143.351563,32.8439481 142.98946,31.7525141 C141.782948,32.2268119 141.266092,32.2609118 140.266323,32.2609118 L140.267866,32.2609118 Z M77.2469268,19.3773699 C75.690932,19.3511736 74.13815,19.5283242 72.6276233,19.9043675 C72.3514525,20.8746632 72.3869381,22.2944568 72.6276233,23.2988522 C73.912555,22.9782806 75.2334781,22.826664 76.5572713,22.8478043 C78.7650947,22.8478043 79.8327494,23.7483502 79.8327494,25.5850919 L79.8327494,25.7571411 C79.1785795,25.6889414 78.3855527,25.6191918 77.8270397,25.6191918 C74.1735625,25.6191918 71.0384841,26.9351358 71.0384841,30.4675699 C71.0384841,34.4510519 73.8665347,35.8010958 77.9689823,35.8010958 C79.9908171,35.7802006 81.999127,35.4669892 83.9321144,34.8711 L83.9321144,25.8888905 C83.935197,21.5938599 81.6255452,19.4812195 77.2469268,19.3773699 Z M79.8296637,32.2609118 C79.2262281,32.3668414 78.6154287,32.4248871 78.0029251,32.434511 C76.0373296,32.434511 74.969675,31.8455137 74.969675,30.4598199 C74.969675,29.0741262 76.0373296,28.5207787 78.0029251,28.5207787 C78.657095,28.5207787 79.4161789,28.5905284 79.8296637,28.6246282 L79.8296637,32.2609118 Z M96.3813966,15.9146855 L96.3813966,19.6889185 C95.6479788,19.5096199 94.8942191,19.4283187 94.1396304,19.4471196 C89.4169557,19.4471196 86.210906,22.6323552 86.210906,27.7240823 C86.210906,32.9196588 89.3475273,35.7933459 94.2430016,35.7933459 C96.4190397,35.814786 98.5845804,35.4877716 100.658187,34.8246002 L100.658187,12.4163513 C99.4516752,12.8658493 98.1757353,13.4889465 97.1096235,14.3553926 C96.5526534,14.8064405 96.3813966,15.2543885 96.3813966,15.9146855 Z M96.3813966,32.0532127 C95.7882343,32.2298689 95.1717091,32.3145434 94.5531152,32.3043116 C91.7266075,32.3043116 90.6234672,30.43347 90.6234672,27.7318322 C90.6234672,24.7186458 91.7266075,22.8834541 94.5191724,22.8834541 C95.1481855,22.8749483 95.7752056,22.9563632 96.3813966,23.125253 L96.3813966,32.0532127 Z M126.959211,26.1306895 L125.235844,25.4037427 C124.236075,24.9883446 123.64979,24.6411462 123.64979,23.9839491 C123.64979,22.9795537 124.546188,22.7718546 125.718757,22.7718546 C127.089443,22.7726679 128.45111,22.9945571 129.751776,23.4290516 C129.958713,22.3654872 129.958713,21.2717306 129.751776,20.2081662 C128.718064,19.6548187 126.786412,19.3773699 125.09853,19.3773699 C121.787566,19.3773699 119.271172,21.1784618 119.271172,23.8800996 C119.271172,26.3042887 120.306427,27.5163832 123.202363,28.6943779 L124.546188,29.2477254 C125.822128,29.766973 126.20167,30.0785216 126.20167,30.9108679 C126.20167,32.1508623 124.967387,32.3647613 123.925961,32.3647613 C122.202594,32.3647613 120.891168,32.0191129 119.237229,31.4347655 C118.961029,32.5371849 118.961029,33.6911809 119.237229,34.7936004 C120.650483,35.5561969 122.580593,35.7979958 124.615617,35.7979958 C127.889552,35.7979958 130.51086,34.0666536 130.51086,30.9496177 C130.51086,28.3828293 129.40772,27.1707348 126.959211,26.1306895 Z"></path>
                                </g>
                            </g>
                        </g>
                    </g>
                </g>
            </g>
        </g>
    </g>
</svg>