<?xml version="1.0" encoding="UTF-8"?>
<svg width="250px" height="80px" viewBox="0 0 250 80" version="1.1" xmlns="http://www.w3.org/2000/svg" xmlns:xlink="http://www.w3.org/1999/xlink">
    <!-- Generator: Sketch 58 (84663) - https://sketch.com -->
    <title>elo</title>
    <desc>Created with Sketch.</desc>
    <defs>
        <rect id="path-1" x="0" y="0" width="250" height="80" rx="4"></rect>
    </defs>
    <g id="Home" stroke="none" stroke-width="1" fill="none" fill-rule="evenodd">
        <g id="27.0.1_home" transform="translate(-907.000000, -511.000000)">
            <g id="Parceiros" transform="translate(0.000000, 479.000000)">
                <g transform="translate(109.000000, 32.000000)" id="elo">
                    <g transform="translate(798.000000, 0.000000)">
                        <mask id="mask-2" fill="white">
                            <use xlink:href="#path-1"></use>
                        </mask>
                        <use id="Rectangle" fill="#222222" xlink:href="#path-1"></use>
                        <g id="Group-18" mask="url(#mask-2)">
                            <g transform="translate(85.000000, 25.000000)">
                                <path d="M12.475926,6.78774987 C13.3744552,6.48763982 14.3350555,6.32611906 15.3348754,6.32611906 C19.696016,6.32611906 23.3369165,9.42358779 24.1709335,13.5411266 L30.3528644,12.2802561 C28.9342351,5.28323762 22.7504632,0.0174047024 15.3348754,0.0174047024 C13.6357059,0.0174047024 12.0034097,0.294223112 10.475966,0.804398199 L12.475926,6.78774987 Z" id="Fill-2" fill="#F9C623"></path>
                                <path d="M5.18036218,26.8223952 L9.36081241,22.095912 C7.4945993,20.4425653 6.31741071,18.0297989 6.31741071,15.3418149 C6.31741071,12.6557919 7.4931986,10.2442261 9.35825113,8.59276038 L5.1768004,3.86595698 C2.00781591,6.67364082 0.00789594797,10.7749315 0.00789594797,15.3418149 C0.00789594797,19.9118199 2.00861631,24.0143512 5.18036218,26.8223952" id="Fill-4" fill="#009ACB"></path>
                                <path d="M24.1691166,17.1511916 C23.3317779,21.2662891 19.6944392,24.3578749 15.3348994,24.3578749 C14.3342391,24.3578749 13.3711576,24.1967944 12.4731486,23.8947234 L10.4706673,29.8803962 C11.998071,30.3902511 13.6337289,30.6662291 15.3348994,30.6662291 C22.7434037,30.6662291 28.925935,25.4091206 30.3503272,18.4184252 L24.1691166,17.1511916 Z" id="Fill-6" fill="#DC3E2A"></path>
                                <path d="M48.1121801,20.4306833 C48.1101391,20.4323242 48.1089785,20.4338849 48.1072176,20.4354857 L47.9313297,20.3169865 C47.4250765,21.1387574 46.6352816,21.8041301 45.638063,22.2365463 C43.7413147,23.0614787 41.9837159,22.8494127 40.7214447,21.7421391 L40.6053467,21.9186673 C40.604026,21.9167064 40.6035858,21.9151456 40.6017849,21.9151456 L38.4492286,25.1354357 C38.9835358,25.5069815 39.5573027,25.8212986 40.159924,26.0728644 C42.5377529,27.0604382 44.9708894,27.0150955 47.3676078,25.9726143 C49.1014347,25.2215188 50.4613947,24.0755058 51.3913397,22.6235398 L48.1121801,20.4306833 Z M41.3921401,12.4851906 C39.3890985,13.346061 38.3564622,15.2249205 38.5689285,17.428062 L47.054091,13.776076 C45.5949615,12.0614987 43.695932,11.4932146 41.3921401,12.4851906 L41.3921401,12.4851906 Z M35.7584832,22.2953757 C35.555942,21.9672916 35.2808444,21.4423892 35.1148414,21.0562761 C34.135912,18.7836598 34.0889285,16.4317239 34.9158219,14.1737149 C35.8248364,11.6977969 37.5611446,9.80192896 39.8045063,8.8368064 C42.6252366,7.62291946 45.7446363,7.86223912 48.4481881,9.46624112 C50.1656068,10.4515338 51.3826953,11.9726143 52.3074377,14.1235698 C52.4251366,14.3987874 52.5285483,14.6930145 52.6297189,14.9429795 L35.7584832,22.2953757 Z" id="Fill-8" fill="#FFFFFE"></path>
                                <path d="M58.5269595,4.0938029 L58.5269595,21.998035 L61.3105113,23.1262791 L59.7290005,26.8168444 L56.6563842,25.5374047 C55.9669195,25.2388554 55.4973647,24.781987 55.141987,24.2658889 C54.8023372,23.7398659 54.54805,23.0184252 54.54805,22.0469395 L54.54805,4.0938029 L58.5269595,4.0938029 Z" id="Fill-10" fill="#FFFFFE"></path>
                                <path d="M65.738025,17.4370785 C65.7398259,15.9123962 66.4126023,14.5453127 67.478055,13.6161281 L64.6223872,10.4317759 C62.6855388,12.143992 61.4654887,14.6456028 61.4633214,17.4327964 C61.4601261,20.2210305 62.6784552,22.7254827 64.6133427,24.441981 L67.4658089,21.2544272 C66.4057589,20.3213207 65.7368644,18.9581991 65.738025,17.4370785" id="Fill-12" fill="#FFFFFE"></path>
                                <path d="M70.8123222,22.5185233 C70.250041,22.5168824 69.7086503,22.4241161 69.2035578,22.255912 L67.8395558,26.3110195 C68.7715418,26.6241361 69.769961,26.7943412 70.808,26.7959863 C75.3298609,26.8002641 79.1057489,23.5917799 79.9804262,19.3266073 L75.7882901,18.4704992 C75.3114917,20.7830555 73.2645883,22.5204842 70.8123222,22.5185233" id="Fill-14" fill="#FFFFFE"></path>
                                <path d="M70.8245923,8.08690951 C69.787994,8.08575488 68.790095,8.25435918 67.8589495,8.56435418 L69.2106653,12.6229835 C69.7173187,12.4555798 70.2586293,12.3632136 70.8201901,12.3632136 C73.2783792,12.3655348 75.3266833,14.1132886 75.7922361,16.4317279 L79.9847724,15.5815028 C79.1223412,11.3104072 75.349935,8.09007704 70.8245923,8.08690951" id="Fill-16" fill="#FFFFFE"></path>
                            </g>
                        </g>
                    </g>
                </g>
            </g>
        </g>
    </g>
</svg>