<svg width="178" height="28" viewBox="0 0 178 28" fill="none" xmlns="http://www.w3.org/2000/svg">
	<path d="M170.622 2.443v.588h-.962v2.316h-.773V3.024h-.969v-.589h2.696l.008.008zm3.81 0v2.904h-.681V4.014l.022-.894h-.007l-.727 2.227h-.622l-.727-2.227h-.007l.022.894v1.333h-.681V2.443h1.098l.462 1.482.167.618h.007l.167-.61.462-1.483h1.053l-.008-.007zm-154.9 21.412a11.656 11.656 0 0 0 4.181-3.449l.462-.566-3.265-2.36-.439.543a7.842 7.842 0 0 1-6.916 3.024c-2.682-.238-5.053-1.832-6.25-4.2a7.54 7.54 0 0 1 .34-7.44 7.813 7.813 0 0 1 6.614-3.628 7.69 7.69 0 0 1 6.227 3.061l.432.566 3.295-2.398-.462-.566a11.973 11.973 0 0 0-9.5-4.692C7.708 1.75 2.39 6.956 2.374 13.398a11.045 11.045 0 0 0 .955 4.543c.568 1.4 1.44 2.667 2.538 3.717a11.778 11.778 0 0 0 8.378 3.418c1.833.008 3.644-.41 5.28-1.221M32.04 2.443h-4.137v22.283h4.137V2.443zm23.415 22.283V2.443h-4.136v14.873L41.09 2.443h-4.045v22.283h4.136V9.831l10.257 14.902h4.015v-.007zm19.56 0v-4H64.56v-6.844h9.363V9.846h-9.364V6.382h10.742v-3.94H60.423v22.284h14.59zm24.847 0V2.443h-3.917l-6.227 8.408-6.242-8.408H79.59v22.283h4.106V9.563l6.015 8.118 6.045-8.118v15.17h4.106v-.007zm19.294 0-2.341-6.055h-7.674l-2.371 6.055h-4.416l8.712-22.283h3.765l8.757 22.283h-4.447.015zm-3.947-10.054-2.234-5.757-2.235 5.757h4.469zm24.863 10.054-8.114-10.97h-1.946v10.97h-4.008V2.442h10.681c1.523 0 2.985.604 4.046 1.676a5.502 5.502 0 0 1 1.704 3.977 5.502 5.502 0 0 1-1.704 3.977 5.654 5.654 0 0 1-3.902 1.676l8.106 10.97h-4.871l.008.008zm-3.387-14.91a1.74 1.74 0 0 0 1.75-1.69v-.053c-.015-.938-.795-1.69-1.75-1.69h-6.673v3.433h6.673zm32.415 14.91-10.56-14.59 8.273-7.7h-5.924l-9.219 8.52V2.442h-4.106v22.283h4.106v-8.274l3.749-3.493 8.53 11.767h5.159-.008z" fill="#fff"/>
</svg>