<?xml version="1.0" encoding="UTF-8"?>
<svg width="250px" height="80px" viewBox="0 0 250 80" version="1.1" xmlns="http://www.w3.org/2000/svg" xmlns:xlink="http://www.w3.org/1999/xlink">
    <!-- Generator: Sketch 58 (84663) - https://sketch.com -->
    <title>prime</title>
    <desc>Created with Sketch.</desc>
    <defs>
        <rect id="path-1" x="0" y="0" width="250" height="80" rx="4"></rect>
    </defs>
    <g id="Home" stroke="none" stroke-width="1" fill="none" fill-rule="evenodd">
        <g id="27.0.1_home" transform="translate(-375.000000, -514.000000)">
            <g id="Parceiros" transform="translate(0.000000, 479.000000)">
                <g transform="translate(109.000000, 32.000000)" id="prime">
                    <g transform="translate(266.000000, 3.000000)">
                        <mask id="mask-2" fill="white">
                            <use xlink:href="#path-1"></use>
                        </mask>
                        <use id="Rectangle" fill="#222222" xlink:href="#path-1"></use>
                        <g id="logo_prime_novo" mask="url(#mask-2)" fill="#FFFFFF">
                            <g transform="translate(65.000000, 17.000000)">
                                <path d="M13.6603013,5.8857974 C11.9803013,5.8857974 10.1438338,6.04008312 8.3294961,6.34865455 C10.1662753,3.99042078 13.0777558,2.47000519 16.3255481,2.47000519 C18.7221195,2.47000519 21.1186909,3.37358961 22.7313662,4.7179013 C23.0227948,4.96008312 23.246587,4.98221299 23.4706909,4.76184935 C23.6944831,4.54148571 23.6720416,4.32112208 23.4258078,4.03468052 C21.3203532,1.58855065 18.2293403,-0.0643324675 14.5785351,0.00205714286 C9.80783377,0.0899532468 5.7537039,3.10896623 4.20835325,7.29618701 C2.79734026,7.73691429 1.49822338,8.26584935 0.355885714,8.90481039 C0.0423272727,9.08122597 -0.0695688312,9.30158961 0.0423272727,9.5659013 C0.154223377,9.80839481 0.378327273,9.8966026 0.691885714,9.80839481 C1.67744416,9.52195325 2.68544416,9.27945974 3.73801558,9.0590961 C3.62611948,9.61016104 3.55879481,10.1830442 3.55879481,10.7780571 C3.46934026,14.6345766 5.52991169,18.2928623 8.71037922,20.2979532 C9.02393766,20.4964987 9.29261299,20.4964987 9.47183377,20.2540052 C9.65105455,20.0115117 9.62861299,19.7911481 9.35993766,19.5486545 C7.34393766,17.7417974 6.22404156,15.053174 6.22404156,12.3866805 C6.22404156,11.0423688 6.49302857,9.74231688 7.00793766,8.57410909 C8.06082078,8.48621299 9.20315844,8.42013506 10.4573922,8.42013506 C18.6102234,8.42013506 25.4863792,11.1084468 25.4863792,14.6345766 C25.4863792,16.4196156 23.2241455,18.2046545 20.5364571,19.3946805 C19.8868987,19.6811221 19.819574,19.8793558 19.9093403,20.1657974 C19.9987948,20.4304208 20.2902234,20.5183169 20.6262234,20.4082909 C25.3296,18.8657455 28.8909506,16.3314078 28.8909506,13.2684468 C28.8909506,9.10335584 22.171574,5.8857974 13.6603013,5.8857974" id="Fill-1"></path>
                                <path d="M16.9509818,17.8360208 L14.5369558,19.2252156 L14.5369558,27.5042805 L17.1192935,27.5042805 C17.3589818,27.5042805 17.5534753,27.3100987 17.5534753,27.0700987 L17.5534753,18.1473974 C17.5534753,17.8054753 17.2233974,17.6808 16.9509818,17.8360208" id="Fill-3"></path>
                                <path d="M11.9212052,21.0539532 L11.9212052,27.2247584 C11.9212052,27.3790442 12.0461922,27.5043429 12.2007896,27.5043429 L13.8567896,27.5043429 L13.8567896,19.6164468 L12.2039065,20.5677195 C12.0290494,20.6674597 11.9212052,20.824239 11.9212052,21.0539532" id="Fill-5"></path>
                                <path d="M45.2764364,34.6480208 C44.3956052,34.6480208 43.6478649,35.0635013 43.0824623,35.8445922 C43.0659429,35.461839 43.0160727,35.0635013 42.9496831,34.7140987 C42.7832416,34.6642286 42.5507221,34.6480208 42.367761,34.6480208 C42.151761,34.6480208 41.935761,34.6807481 41.7696312,34.7140987 L41.7696312,42.8419948 C41.9519688,42.8753455 42.1851117,42.9083844 42.4344623,42.9083844 C42.683813,42.9083844 42.9662026,42.8753455 43.1488519,42.8419948 L43.1488519,38.2545662 C43.1488519,36.7752935 44.0795532,35.7778909 45.2596052,35.7778909 C45.4762286,35.7778909 45.7252675,35.7778909 45.8917091,35.827761 C45.9412675,35.6285922 45.9580987,35.4122805 45.9580987,35.2293195 C45.9580987,35.0635013 45.9412675,34.8805403 45.9082286,34.7140987 C45.7087481,34.6807481 45.4927481,34.6480208 45.2764364,34.6480208 L45.2764364,34.6480208 Z M47.9024104,31.8556052 C47.6365403,31.8556052 47.353839,31.8556052 47.1546701,31.9051636 C47.1381506,32.1049558 47.1213195,32.3705143 47.1213195,32.586826 C47.1213195,32.8025143 47.1381506,33.0686961 47.1546701,33.2850078 C47.3376312,33.3180468 47.6035013,33.3345662 47.8693714,33.3345662 C48.1355532,33.3345662 48.4344623,33.3180468 48.6174234,33.2850078 C48.6339429,33.0686961 48.650774,32.8025143 48.650774,32.586826 C48.650774,32.3705143 48.6339429,32.1049558 48.6174234,31.9051636 C48.4344623,31.8556052 48.1682805,31.8556052 47.9024104,31.8556052 L47.9024104,31.8556052 Z M47.1880208,34.7140987 L47.1880208,42.8419948 C47.3706701,42.8753455 47.6035013,42.9083844 47.8528519,42.9083844 C48.1018909,42.9083844 48.3845922,42.8753455 48.5672416,42.8419948 L48.5672416,34.7140987 C48.3845922,34.6807481 48.151761,34.6480208 47.9024104,34.6480208 C47.6530597,34.6480208 47.3706701,34.6807481 47.1880208,34.7140987 L47.1880208,34.7140987 Z M65.0885922,38.0385662 C65.2051636,36.5424623 66.1190338,35.6448 67.2828779,35.6448 C68.5128,35.6448 69.1941506,36.6422026 69.1941506,38.0385662 L65.0885922,38.0385662 Z M70.490774,38.1713455 C70.490774,35.9608519 69.1941506,34.5813195 67.2990857,34.5813195 C65.1222545,34.5813195 63.7424104,36.2765922 63.7424104,38.802826 C63.7424104,41.3627221 65.171813,42.9582545 67.6319688,42.9582545 C68.5293195,42.9582545 69.4435013,42.7756052 70.0085922,42.5259429 C70.0419429,42.3601247 70.058774,42.1771636 70.058774,41.9938909 C70.058774,41.8115532 70.0419429,41.6285922 70.0085922,41.4621506 C69.2938909,41.6949818 68.5626701,41.8614234 67.7313974,41.8614234 C66.0694753,41.8614234 65.1549818,40.7973195 65.0720727,39.0690078 L70.4409039,39.0690078 C70.4739429,38.8695273 70.490774,38.4041766 70.490774,38.1713455 L70.490774,38.1713455 Z M58.6067221,34.5813195 C57.6591896,34.5813195 56.6783065,34.8303584 55.8473455,35.2293195 C55.2657351,34.7973195 54.5173714,34.5813195 53.6035013,34.5813195 C52.5066701,34.5813195 51.4597091,34.7808 50.4956571,35.0635013 L50.4956571,42.8419948 C50.6783065,42.8753455 50.9111377,42.9083844 51.1601766,42.9083844 C51.4095273,42.9083844 51.6922286,42.8753455 51.8748779,42.8419948 L51.8748779,35.9109818 C52.3405403,35.7778909 52.8220987,35.6949818 53.5205922,35.6949818 C55.0332156,35.6949818 55.7145662,36.5094234 55.7145662,38.3209558 L55.7145662,42.8419948 C55.8972156,42.8753455 56.1297351,42.9083844 56.3790857,42.9083844 C56.6287481,42.9083844 56.910826,42.8753455 57.0940987,42.8419948 L57.0940987,38.3041247 C57.0940987,37.4070857 56.9276571,36.6755532 56.5953974,36.0939429 C57.2268779,35.827761 57.8751896,35.6949818 58.5231896,35.6949818 C60.0526442,35.6949818 60.8337351,36.4929039 60.8337351,38.3546182 L60.8337351,42.8419948 C61.0166961,42.8753455 61.2492156,42.9083844 61.4985662,42.9083844 C61.7479169,42.9083844 62.0306182,42.8753455 62.2135792,42.8419948 L62.2135792,38.3041247 C62.2135792,35.8445922 60.8169039,34.5813195 58.6067221,34.5813195 L58.6067221,34.5813195 Z M36.0853714,41.8280727 C35.5199688,41.8280727 35.0215792,41.7613714 34.6721766,41.6619429 L34.6721766,35.9109818 C35.2207481,35.7610597 35.7359688,35.6949818 36.1682805,35.6949818 C37.8305143,35.6949818 38.7612156,36.7752935 38.7612156,38.6370078 C38.7612156,40.7645922 37.6643844,41.8280727 36.0853714,41.8280727 L36.0853714,41.8280727 Z M36.2181506,34.5813195 C35.1543584,34.5813195 34.0406961,34.8303584 33.2929558,35.0797091 L33.2929558,46.6311896 C33.6750857,46.4822026 34.1073974,46.2824104 34.4063065,46.0000208 C34.5727481,45.8500987 34.6721766,45.6674494 34.6721766,45.4015792 L34.6721766,42.7921247 C35.1210078,42.8918649 35.6197091,42.9414234 36.1349299,42.9414234 C38.5283844,42.9414234 40.1572675,41.2795013 40.1572675,38.6370078 C40.1572675,35.9776831 38.5782545,34.5813195 36.2181506,34.5813195 L36.2181506,34.5813195 Z" id="Fill-7"></path>
                                <path d="M80.5434701,19.0882597 C80.6469506,17.8408831 81.6652364,16.8665455 82.9160416,16.8188571 C83.9963532,16.7477922 84.9295481,17.565974 85.000613,18.6462857 C85.0102753,18.794026 85.0031065,18.9420779 84.9794182,19.0882597 L80.5434701,19.0882597 Z M83.0192104,14.445974 C79.5117818,14.445974 77.4484052,16.7156883 77.4484052,20.5326234 C77.4484052,24.3495584 79.7181195,26.6192727 83.5353662,26.6192727 C84.7783792,26.6607273 86.0142234,26.4135584 87.1459636,25.8970909 C87.3510545,25.0845195 87.3510545,24.2336104 87.1459636,23.421039 C86.0893403,23.8159481 84.972561,24.0250909 83.844561,24.0400519 C82.0910026,24.0400519 80.8529766,23.3178701 80.5434701,21.4611429 L87.8678338,21.4611429 C87.9566649,20.9156883 87.991574,20.3627532 87.9710026,19.8104416 C87.9710026,16.4061818 86.0111065,14.445974 83.0192104,14.445974 L83.0192104,14.445974 Z M95.2956779,19.3977662 L93.9544831,18.8819221 C93.2323013,18.5724156 92.8199377,18.2632208 92.8199377,17.8502338 C92.8199377,17.4378701 93.438639,16.922026 94.3674701,16.922026 C95.3863792,16.9248312 96.3974961,17.0990649 97.3587429,17.4378701 C97.5644571,16.6602078 97.5644571,15.8423377 97.3587429,15.064987 C96.2488208,14.6058701 95.051626,14.3945455 93.8513143,14.445974 C91.375574,14.445974 89.5185351,15.7871688 89.5185351,17.7470649 C89.5185351,19.7072727 90.3438857,20.4294545 92.5104312,21.357974 L93.438639,21.7703377 C94.4703273,22.0801558 94.6766649,22.3893506 94.6766649,23.0083636 C94.6766649,23.6273766 93.7481455,24.0400519 93.0262753,24.0400519 C91.8181714,24.0590649 90.6206649,23.8125195 89.5185351,23.3178701 C89.3131325,24.1653506 89.3131325,25.0496104 89.5185351,25.8970909 C90.7902234,26.4303896 92.1638338,26.6769351 93.5418078,26.6192727 C96.0175481,26.6192727 97.9780675,25.2780779 97.9780675,23.0083636 C97.9780675,20.738961 97.1524052,20.2231169 95.2956779,19.3977662 L95.2956779,19.3977662 Z M114.174327,24.0400519 C112.420457,24.0400519 111.801444,22.5956883 111.801444,20.5326234 C111.801444,18.4692468 112.420457,17.0248831 114.174327,17.0248831 C115.927886,17.0248831 116.54721,18.4692468 116.54721,20.5326234 C116.54721,22.5956883 115.927886,24.0400519 114.174327,24.0400519 L114.174327,24.0400519 Z M114.174327,14.445974 C110.563418,14.445974 108.603522,16.8188571 108.603522,20.5326234 C108.603522,24.2463896 110.666899,26.6192727 114.174327,26.6192727 C117.681756,26.6192727 119.744821,24.2463896 119.744821,20.5326234 C119.744821,16.8188571 117.784925,14.445974 114.174327,14.445974 L114.174327,14.445974 Z M105.199262,23.9368831 C103.652042,23.9368831 102.620042,22.6988571 102.620042,20.5326234 C102.620042,18.3660779 103.445704,17.0248831 105.199262,17.0248831 C105.9096,17.0030649 106.615262,17.1439481 107.262639,17.4378701 C107.514795,16.6246753 107.898483,15.8579221 108.397184,15.1681558 C107.276353,14.6195844 106.032094,14.3705455 104.786587,14.445974 C101.278847,14.445974 99.3189506,16.922026 99.3189506,20.5326234 C99.3189506,24.1432208 101.382016,26.6192727 104.992925,26.6192727 C106.214743,26.6641558 107.426587,26.378961 108.500353,25.7939221 C107.947418,25.1615065 107.526327,24.424987 107.262639,23.6273766 C106.602171,23.8673766 105.900561,23.9724156 105.199262,23.9368831 L105.199262,23.9368831 Z M60.0141195,23.9368831 L58.6729247,24.1432208 C57.228561,24.1432208 56.4035221,23.6273766 56.4035221,22.5956883 C56.4035221,21.5643117 57.228561,21.1516364 58.6729247,21.1516364 L60.0141195,21.1516364 L60.0141195,23.9368831 Z M58.1573922,14.445974 C56.9792104,14.3908052 55.7994701,14.4949091 54.6496519,14.7554805 C54.4950545,15.6082597 54.4950545,16.4819221 54.6496519,17.3347013 C55.6292883,17.1024935 56.6351065,16.9987013 57.6412364,17.0248831 C59.2919377,17.0248831 60.0141195,17.6438961 60.0141195,18.9850909 L58.5697558,18.9850909 C55.8876779,18.9850909 53.5147948,20.0167792 53.5147948,22.5956883 C53.5147948,25.1749091 55.5781714,26.6192727 58.6729247,26.6192727 C60.1774442,26.5806234 61.6698078,26.3375065 63.1088727,25.8970909 L63.1088727,19.1914286 C63.1088727,16.0966753 61.3550026,14.445974 58.1573922,14.445974 L58.1573922,14.445974 Z M52.2770805,14.5491429 C50.9701714,14.5145455 49.7321455,15.1335584 48.9756779,16.1998442 C48.9638338,15.669974 48.8591065,15.146026 48.6664831,14.6523117 L46.0872623,14.6523117 L46.0872623,26.3094545 L47.6344831,26.5161039 L49.2851844,26.3094545 L49.2851844,20.6357922 C49.2851844,18.3660779 50.4200416,17.2312208 52.0704312,17.2312208 L53.1021195,17.2312208 C53.3078338,16.3840519 53.3078338,15.4997922 53.1021195,14.6523117 L52.2770805,14.5491429 Z M37.7312104,24.0400519 C37.3073143,24.0836883 36.8796779,24.0123117 36.4931844,23.8337143 L36.4931844,17.4378701 C37.0819636,17.1997403 37.7159377,17.0940779 38.3499117,17.1280519 C39.8974442,17.1280519 40.8259636,18.1597403 40.8259636,20.3262857 C40.8259636,22.4925195 39.7942753,24.0400519 37.7312104,24.0400519 L37.7312104,24.0400519 Z M38.8657558,14.445974 C38.0447688,14.4225974 37.2303273,14.5996364 36.4931844,14.9618182 L36.4931844,9.18467532 C35.5472104,9.56275325 34.6473662,10.0474286 33.8107948,10.629039 C33.4598338,10.9416623 33.2700156,11.3973506 33.2952623,11.8670649 L33.2952623,25.8970909 C34.6448727,26.4095065 36.0814442,26.6548052 37.524561,26.6192727 C41.6513143,26.6192727 44.1270545,24.0400519 44.1270545,20.3262857 C44.1270545,16.6125195 42.3734961,14.445974 38.8657558,14.445974 L38.8657558,14.445974 Z M72.3937558,23.8337143 L71.052561,24.0400519 C68.9894961,24.0400519 68.1638338,22.5956883 68.1638338,20.6357922 C68.1638338,18.6755844 68.9894961,17.0248831 71.052561,17.0248831 L72.3937558,17.2312208 L72.3937558,23.8337143 Z M72.3937558,11.8670649 L72.3937558,14.6523117 C71.8610805,14.4824416 71.3012883,14.4126234 70.7430545,14.445974 C67.235626,14.445974 64.8627429,16.8188571 64.8627429,20.6357922 C64.8627429,24.4527273 67.1324571,26.6192727 70.8462234,26.6192727 C72.4573403,26.6467013 74.0616,26.4026494 75.5916779,25.8970909 L75.5916779,9.18467532 C74.6787429,9.564 73.8128727,10.0486753 73.0127688,10.629039 C72.6350026,10.9310649 72.4084052,11.3836364 72.3937558,11.8670649 L72.3937558,11.8670649 Z" id="Fill-9"></path>
                            </g>
                        </g>
                    </g>
                </g>
            </g>
        </g>
    </g>
</svg>